# xmcd
#
# Track frame offsets: 
#        150
#        18789
#        41819
#        60537
#        80849
#        106361
#        128201
#        148070
#        160255
#        178385
#        199040
#        213558
#
# Disc length: 3190 seconds
#
# Revision: 0
# Processed by: cddbd v1.5.2PL0 Copyright (c) Steve Scherf et al.
# Submitted via: ExactAudioCopy v0.99pb4
#
DISCID=b10c740c
DTITLE=Scott H. Miller - Letters to Myself
DYEAR=2006
DGENRE=Country and Folk
TTITLE0=Three-Quarter Time
TTITLE1=Letters to Myself
TTITLE2=Winos
TTITLE3=Lost You Said
TTITLE4=Keep It Together
TTITLE5=Music is the Medicine
TTITLE6=The Wedding
TTITLE7=The Eagle
TTITLE8=Complexion on My Love
TTITLE9=Show (for Aidden`s Mom)
TTITLE10=Northern Sky
TTITLE11=Run Free
EXTD=
EXTT0=
EXTT1=
EXTT2=
EXTT3=
EXTT4=
EXTT5=
EXTT6=
EXTT7=
EXTT8=
EXTT9=
EXTT10=
EXTT11=
PLAYORDER=
